<svg xmlns="http://www.w3.org/2000/svg" width="808" height="131" viewBox="0 0 808 131">
  <path fill="#FFF" d="M784.00375,11.694625 C784.00375,8.171125 787.39375,6.73025 792.89875,6.73025 C798.30125,6.73025 801.79375,8.045625 801.79375,11.694625 C801.79375,16.225375 796.30375,16.744375 792.8575,16.744375 C787.36875,16.744375 784.00375,15.3015 784.00375,11.694625 L784.00375,11.694625 Z M807.04125,11.694625 C807.04125,4.79375 801.75375,0 792.8575,0 C786.4425,0 778.75625,3.1925 778.75625,11.694625 C778.75625,19.83125 785.565,23.47675 792.8575,23.47675 C800.2525,23.47675 807.04125,19.83025 807.04125,11.694625 L807.04125,11.694625 Z M784.045,44.090125 L784.045,39.179375 C784.045,36.140875 785.965,35.034375 787.51875,35.034375 C789.24375,35.034375 791.05625,36.201375 791.05625,39.179375 L791.05625,44.090125 L784.045,44.090125 L784.045,44.090125 Z M795.785,44.090125 L795.785,39.405 L806.6425,35.195 L806.6425,28.06375 L794.505,33.152125 C793.42125,30.18825 790.535,28.3835 787.4125,28.3835 C782.34,28.3835 779.1575,31.698 779.1575,38.305875 L779.1575,50.49925 L806.6425,50.49925 L806.6425,44.090125 L795.785,44.090125 Z M789.37875,56.610625 C782.7625,57.33175 778.75625,60.85325 778.75625,67.75075 C778.75625,76.00262 785.28625,80.08712 792.89875,80.08712 C800.39125,80.08712 807.04125,76.12187 807.04125,67.950375 C807.04125,61.618375 803.32,57.29225 797.0275,56.610625 L796.62625,62.859125 C799.2725,63.221875 801.79375,64.62275 801.79375,67.629625 C801.79375,72.47925 796.945,72.91912 793.18,72.91912 C789.85,72.91912 783.92875,72.47925 783.92875,67.950375 C783.92875,64.423125 786.7625,63.380625 789.81125,63.345 L789.37875,56.610625 L789.37875,56.610625 Z M806.6425,86.26487 L779.1575,86.26487 L779.1575,92.674 L806.6425,92.674 L806.6425,86.26487 Z M806.6425,113.91375 L806.6425,118.32104 L784.24875,124.9436 L784.24875,125.09496 L806.6425,125.09496 L806.6425,130.50023 L779.1575,130.50023 L779.1575,120.4475 L795.625,115.6365 L779.1575,110.59012 L779.1575,100.53487 L806.6425,100.53487 L806.6425,106.94362 L784.24875,106.94362 L784.24875,107.10225 L806.6425,113.91375 L806.6425,113.91375 Z M240.63625,130.50023 L136.61375,130.50023 C128.56125,100.61012 111.499,37.504125 111.499,37.504125 L111.19875,37.504125 L111.19875,130.50023 L68.67725,130.50023 L68.67725,1.9975 L142.5025,1.9975 C150.275,31.633 166.555,92.6115 166.555,92.6115 L166.85625,92.6115 L166.85625,1.9975 L209.47625,1.9975 L209.47625,21.52125 C199.08875,32.489 192.78375,46.511 192.78375,64.10375 C192.78375,89.35663 206.97,120.68628 240.63625,130.50023 L240.63625,130.50023 Z M746.07375,1.9975 L746.07375,130.50023 L701.51125,130.50023 L701.51125,29.85475 L700.88,29.85475 L675.27625,130.50023 L634.1425,130.50023 L608.6475,29.85475 L607.95625,29.85475 L607.95625,130.50023 L530.04,130.50023 L522.27125,102.82 L480.39625,102.82 L472.6325,130.50023 L398.17375,130.50023 C398.17375,130.50023 395.65375,111.56125 395,106.82887 C392.79375,90.9085 387.99,87.051 378.4825,87.051 L365.48,87.051 L365.48,130.50023 L289.20875,130.50023 C311.18125,125.5061 331.02375,115.52512 342.3975,108.655 L326.38375,47.91625 L283.7925,59.14375 L292.875,93.5915 C290.20375,95.48262 281.33875,98.59737 275.265,98.59737 C254.9325,98.59737 245.25875,78.217 245.25875,60.659375 C245.25875,32.400125 274.06,21.523125 299.45,21.523125 C305.35375,21.523125 312.98,22.037375 314.045,22.157 L308.73125,1.9975 L397.49625,1.9975 C433.02375,1.9975 446.7925,18.839625 446.7925,36.75175 C446.7925,63.888875 420.915,68.992875 415.98,69.85813 C415.9,69.87083 415.9037,70.6155 415.98,70.63012 C426.32,72.596 433.92375,77.59987 438.7625,86.32538 C438.59875,86.0315 465.94625,9.06325 468.43125,1.9975 L536.6675,1.9975 L565.45,82.591 L565.83875,82.591 L565.83875,1.9975 L639.22125,1.9975 C639.22125,1.9975 656.2175,72.35813 656.3175,72.3625 C661.86375,48.933875 672.97875,1.9975 672.97875,1.9975 L746.07375,1.9975 L746.07375,1.9975 Z M0,1.9975 L49.441875,1.9975 C49.441875,1.9975 49.366755,87.39088 49.366755,130.50023 C49.06538,130.50023 0.30713375,130.52273 5e-06,130.50023 L0,1.9975 Z M500.94125,29.593 L487.1275,71.96212 L515.615,71.96212 L501.66625,29.593 L500.94125,29.593 L500.94125,29.593 Z M365.48,58.08475 L380.1775,58.08475 C392.19375,58.08475 397.2,51.884 397.2,44.276125 C397.2,34.567625 388.925,30.753125 380.1775,30.753125 C374.98375,30.753125 365.48,30.756625 365.48,30.756625 L365.48,58.08475 L365.48,58.08475 Z"/>
</svg>
